name Walk2.mot
datacolumns 19
datarows 20
range 3.09500000 3.11400000
endheader

                time	   L_ground_force_vx	   L_ground_force_vy	   L_ground_force_vz	   L_ground_force_px	   L_ground_force_py	   L_ground_force_pz	   R_ground_force_vx	   R_ground_force_vy	   R_ground_force_vz	   R_ground_force_px	   R_ground_force_py	   R_ground_force_pz	   L_ground_torque_x	   L_ground_torque_y	   L_ground_torque_z	   R_ground_torque_x	   R_ground_torque_y	   R_ground_torque_z	
          3.09500000	          1.76276471	         40.48183979	         -1.12323367	          0.00428112	          0.00000000	          0.00111008	          0.00000000	          0.00000000	          0.00000000	          0.00000000	          0.00000000	          0.00000000	          0.00000000	         -0.02497079	          0.00000000	          0.00000000	          0.00000000	          0.00000000	
          3.09600000	          2.08458276	         46.01021800	         -1.17995059	         -0.01583491	          0.00000000	          0.00141232	          0.00000000	          0.00000000	          0.00000000	          0.00000000	          0.00000000	          0.00000000	          0.00000000	         -0.02922420	          0.00000000	          0.00000000	          0.00000000	          0.00000000	
          3.09700000	          2.36402857	         51.66363463	         -1.24408962	         -0.03586686	          0.00000000	          0.00171797	          0.00000000	          0.00000000	          0.00000000	          0.00000000	          0.00000000	          0.00000000	          0.00000000	         -0.03302504	          0.00000000	          0.00000000	          0.00000000	          0.00000000	
          3.09800000	          2.59703148	         57.43371874	         -1.31596604	         -0.05574601	          0.00000000	          0.00202634	          0.00000000	          0.00000000	          0.00000000	          0.00000000	          0.00000000	          0.00000000	          0.00000000	         -0.03632654	          0.00000000	          0.00000000	          0.00000000	          0.00000000	
          3.09900000	          2.77954408	         63.31143291	         -1.39586803	         -0.07540818	          0.00000000	          0.00233673	          0.00000000	          0.00000000	          0.00000000	          0.00000000	          0.00000000	          0.00000000	          0.00000000	         -0.03908227	          0.00000000	          0.00000000	          0.00000000	          0.00000000	
          3.10000000	          2.90758501	         69.28710680	         -1.48405007	         -0.09479526	          0.00000000	          0.00264848	          0.00000000	          0.00000000	          0.00000000	          0.00000000	          0.00000000	          0.00000000	          0.00000000	         -0.04124675	          0.00000000	          0.00000000	          0.00000000	          0.00000000	
          3.10100000	          2.97728328	         75.35049263	         -1.58072677	         -0.11385530	          0.00000000	          0.00296096	          0.00000000	          0.00000000	          0.00000000	          0.00000000	          0.00000000	          0.00000000	          0.00000000	         -0.04277586	          0.00000000	          0.00000000	          0.00000000	          0.00000000	
          3.10200000	          2.98492423	         81.49084987	         -1.68606662	         -0.13254215	          0.00000000	          0.00327355	          0.00000000	          0.00000000	          0.00000000	          0.00000000	          0.00000000	          0.00000000	          0.00000000	         -0.04362734	          0.00000000	          0.00000000	          0.00000000	          0.00000000	
          3.10300000	          2.92699818	         87.69706789	         -1.80018530	         -0.15081511	          0.00000000	          0.00358568	          0.00000000	          0.00000000	          0.00000000	          0.00000000	          0.00000000	          0.00000000	          0.00000000	         -0.04376104	          0.00000000	          0.00000000	          0.00000000	          0.00000000	
          3.10400000	          2.80025215	         93.95783022	         -1.92313760	         -0.16863860	          0.00000000	          0.00389679	          0.00000000	          0.00000000	          0.00000000	          0.00000000	          0.00000000	          0.00000000	          0.00000000	         -0.04313925	          0.00000000	          0.00000000	          0.00000000	          0.00000000	
          3.10500000	          2.60174569	        100.26181829	         -2.05490808	         -0.18598181	          0.00000000	          0.00420635	          0.00000000	          0.00000000	          0.00000000	          0.00000000	          0.00000000	          0.00000000	          0.00000000	         -0.04172696	          0.00000000	          0.00000000	          0.00000000	          0.00000000	
          3.10600000	          2.32891045	        106.59794432	         -2.19540067	         -0.20281842	          0.00000000	          0.00451383	          0.00000000	          0.00000000	          0.00000000	          0.00000000	          0.00000000	          0.00000000	          0.00000000	         -0.03949225	          0.00000000	          0.00000000	          0.00000000	          0.00000000	
          3.10700000	          1.97961156	        112.95559326	         -2.34442859	         -0.21912630	          0.00000000	          0.00481874	          0.00000000	          0.00000000	          0.00000000	          0.00000000	          0.00000000	          0.00000000	          0.00000000	         -0.03640660	          0.00000000	          0.00000000	          0.00000000	          0.00000000	
          3.10800000	          1.55220674	        119.32484863	         -2.50170627	         -0.23488720	          0.00000000	          0.00512060	          0.00000000	          0.00000000	          0.00000000	          0.00000000	          0.00000000	          0.00000000	          0.00000000	         -0.03244531	          0.00000000	          0.00000000	          0.00000000	          0.00000000	
          3.10900000	          1.04559818	        125.69667685	         -2.66684477	         -0.25008653	          0.00000000	          0.00541896	          0.00000000	          0.00000000	          0.00000000	          0.00000000	          0.00000000	          0.00000000	          0.00000000	         -0.02758775	          0.00000000	          0.00000000	          0.00000000	          0.00000000	
          3.11000000	          0.45927245	        132.06305172	         -2.83935189	         -0.26471310	          0.00000000	          0.00571339	          0.00000000	          0.00000000	          0.00000000	          0.00000000	          0.00000000	          0.00000000	          0.00000000	         -0.02181753	          0.00000000	          0.00000000	          0.00000000	          0.00000000	
          3.11100000	         -0.20667476	        138.41701056	         -3.01863719	         -0.27875884	          0.00000000	          0.00600345	          0.00000000	          0.00000000	          0.00000000	          0.00000000	          0.00000000	          0.00000000	          0.00000000	         -0.01512266	          0.00000000	          0.00000000	          0.00000000	          0.00000000	
          3.11200000	         -0.95153016	        144.75264543	         -3.20402129	         -0.29221863	          0.00000000	          0.00628875	          0.00000000	          0.00000000	          0.00000000	          0.00000000	          0.00000000	          0.00000000	          0.00000000	         -0.00749561	          0.00000000	          0.00000000	          0.00000000	          0.00000000	
          3.11300000	         -1.77396970	        151.06504034	         -3.39474816	         -0.30509003	          0.00000000	          0.00656887	          0.00000000	          0.00000000	          0.00000000	          0.00000000	          0.00000000	          0.00000000	          0.00000000	          0.00106647	          0.00000000	          0.00000000	          0.00000000	          0.00000000	
          3.11400000	         -2.67207770	        157.35017019	         -3.58999908	         -0.31737306	          0.00000000	          0.00684342	          0.00000000	          0.00000000	          0.00000000	          0.00000000	          0.00000000	          0.00000000	          0.00000000	          0.01056159	          0.00000000	          0.00000000	          0.00000000	          0.00000000	
